<svg width="2001" height="1321" viewBox="0 0 2001 1321" fill="none" xmlns="http://www.w3.org/2000/svg">
<path d="M118.094 1319.82C86.0676 1319.82 59.6076 1313.05 38.7136 1299.52C17.9909 1285.99 5.14628 1267.15 0.179688 1243L30.4931 1237.87C34.7746 1254.31 44.8791 1267.41 60.8064 1277.17C76.7338 1286.93 96.2577 1291.81 119.378 1291.81C142.327 1291.81 160.567 1286.93 174.096 1277.17C187.626 1267.41 194.391 1254.05 194.391 1237.1C194.391 1227.85 192.25 1220.31 187.968 1214.49C183.858 1208.5 175.638 1203.02 163.307 1198.05C150.976 1193.08 132.651 1187.26 108.332 1180.58C82.6423 1173.73 62.5191 1166.88 47.9618 1160.03C33.5758 1153.18 23.3857 1145.39 17.3915 1136.65C11.5686 1127.92 8.65716 1117.21 8.65716 1104.54C8.65716 1089.3 13.0243 1075.94 21.7587 1064.46C30.4931 1052.82 42.6527 1043.74 58.2375 1037.23C73.9936 1030.73 92.1474 1027.47 112.699 1027.47C133.25 1027.47 151.747 1030.9 168.188 1037.75C184.629 1044.43 197.902 1053.85 208.006 1066.01C218.111 1077.99 223.933 1091.95 225.475 1107.88L195.161 1113.53C192.25 1095.72 183.259 1081.68 168.188 1071.4C153.117 1060.95 134.278 1055.64 111.671 1055.47C90.2635 1055.13 72.7948 1059.41 59.2651 1068.32C45.7354 1077.05 38.9705 1088.61 38.9705 1103C38.9705 1111.22 41.2826 1118.24 45.9066 1124.06C50.702 1129.72 59.0938 1134.94 71.0821 1139.73C83.0705 1144.53 100.025 1149.67 121.947 1155.15C148.664 1162 169.472 1169.02 184.372 1176.21C199.443 1183.41 210.061 1191.88 216.227 1201.65C222.392 1211.24 225.475 1223.14 225.475 1237.35C225.475 1263.04 215.884 1283.25 196.703 1297.98C177.693 1312.54 151.49 1319.82 118.094 1319.82Z" fill="white"/>
<path d="M395.811 1320.33C368.066 1320.33 344.689 1314.16 325.679 1301.83C306.669 1289.33 292.197 1272.12 282.264 1250.2C272.502 1228.11 267.45 1202.67 267.108 1173.9C267.45 1144.61 272.588 1119.01 282.521 1097.09C292.626 1075 307.183 1057.87 326.193 1045.71C345.203 1033.55 368.495 1027.47 396.068 1027.47C422.956 1027.47 446.59 1033.98 466.97 1047C487.522 1059.84 501.736 1077.57 509.614 1100.17L480.843 1110.71C473.821 1093.41 462.774 1080.05 447.703 1070.63C432.632 1061.04 415.335 1056.24 395.811 1056.24C373.889 1056.24 355.821 1061.3 341.607 1071.4C327.392 1081.33 316.774 1095.12 309.752 1112.76C302.73 1130.4 299.048 1150.78 298.705 1173.9C299.219 1209.35 307.525 1237.87 323.624 1259.45C339.894 1280.85 363.956 1291.56 395.811 1291.56C415.506 1291.56 432.547 1287.02 446.933 1277.94C461.49 1268.87 472.622 1255.68 480.329 1238.38L509.614 1248.4C498.825 1271.86 483.754 1289.76 464.401 1302.09C445.049 1314.25 422.185 1320.33 395.811 1320.33Z" fill="white"/>
<path d="M642.645 1320.33C621.237 1320.33 603.426 1316.56 589.211 1309.03C575.168 1301.49 564.635 1291.56 557.613 1279.23C550.592 1266.72 547.081 1253.2 547.081 1238.64C547.081 1222.88 550.335 1209.69 556.843 1199.08C563.522 1188.46 572.342 1179.89 583.303 1173.39C594.435 1166.88 606.68 1162 620.038 1158.74C635.281 1155.32 651.722 1152.41 669.362 1150.01C687.002 1147.44 703.785 1145.21 719.713 1143.33C735.811 1141.45 748.913 1139.82 759.017 1138.45L748.228 1144.87C748.913 1114.9 743.261 1092.64 731.273 1078.08C719.456 1063.35 698.562 1055.99 668.591 1055.99C647.526 1055.99 630.143 1060.78 616.442 1070.37C602.912 1079.79 593.407 1094.44 587.927 1114.3L557.613 1105.82C563.95 1080.65 576.709 1061.3 595.89 1047.77C615.072 1034.24 639.648 1027.47 669.619 1027.47C695.137 1027.47 716.544 1032.44 733.842 1042.37C751.311 1052.3 763.47 1066.26 770.321 1084.25C773.232 1091.61 775.202 1100.26 776.229 1110.19C777.257 1119.95 777.771 1129.8 777.771 1139.73V1312.62H750.797V1239.67L760.816 1242.23C752.424 1267.24 737.781 1286.51 716.887 1300.04C695.993 1313.56 671.246 1320.33 642.645 1320.33ZM644.186 1293.1C663.025 1293.1 679.552 1289.76 693.767 1283.08C707.981 1276.23 719.456 1266.72 728.19 1254.57C737.096 1242.23 742.747 1227.76 745.145 1211.15C746.858 1201.9 747.8 1191.88 747.971 1181.09C748.142 1170.3 748.228 1162.34 748.228 1157.2L761.073 1165.42C749.941 1166.79 736.582 1168.25 720.997 1169.79C705.584 1171.33 689.828 1173.22 673.729 1175.44C657.63 1177.67 643.073 1180.49 630.057 1183.92C622.008 1186.15 613.873 1189.4 605.652 1193.68C597.603 1197.79 590.838 1203.53 585.358 1210.89C580.049 1218.26 577.394 1227.59 577.394 1238.89C577.394 1247.29 579.449 1255.68 583.56 1264.07C587.841 1272.46 594.863 1279.4 604.625 1284.88C614.387 1290.36 627.574 1293.1 644.186 1293.1Z" fill="white"/>
<path d="M849.612 1312.62V934.99H879.155V1312.62H849.612Z" fill="white"/>
<path d="M1070.68 1320.33C1044.14 1320.33 1021.19 1314.42 1001.83 1302.6C982.481 1290.62 967.495 1273.75 956.877 1252C946.259 1230.07 940.95 1204.21 940.95 1174.41C940.95 1144.1 946.173 1117.98 956.62 1096.06C967.239 1073.97 982.138 1057.01 1001.32 1045.2C1020.67 1033.38 1043.62 1027.47 1070.17 1027.47C1097.06 1027.47 1120 1033.64 1139.01 1045.97C1158.2 1058.13 1172.75 1075.77 1182.69 1098.89C1192.79 1122.01 1197.59 1149.84 1197.07 1182.38H1166.24V1172.1C1165.39 1134.08 1156.83 1105.14 1140.56 1085.27C1124.29 1065.41 1100.99 1055.47 1070.68 1055.47C1039.34 1055.47 1015.11 1065.83 997.98 1086.56C981.025 1107.11 972.548 1136.22 972.548 1173.9C972.548 1211.24 981.025 1240.18 997.98 1260.73C1015.11 1281.28 1039.17 1291.56 1070.17 1291.56C1091.57 1291.56 1110.24 1286.59 1126.17 1276.66C1142.27 1266.55 1155.03 1252.17 1164.45 1233.5L1191.16 1245.32C1180.03 1269.29 1163.93 1287.79 1142.87 1300.81C1121.8 1313.82 1097.74 1320.33 1070.68 1320.33ZM961.244 1182.38V1155.66H1180.37V1182.38H961.244Z" fill="white"/>
<path d="M1367.7 1320.33C1340.13 1320.33 1316.75 1314.08 1297.57 1301.58C1278.39 1289.07 1263.75 1271.78 1253.64 1249.68C1243.54 1227.59 1238.48 1202.16 1238.48 1173.39C1238.48 1144.44 1243.62 1119.01 1253.9 1097.09C1264.17 1075 1278.9 1057.87 1298.08 1045.71C1317.44 1033.55 1340.64 1027.47 1367.7 1027.47C1395.27 1027.47 1418.65 1033.72 1437.83 1046.22C1457.19 1058.56 1471.83 1075.68 1481.76 1097.6C1491.87 1119.53 1496.92 1144.79 1496.92 1173.39C1496.92 1202.67 1491.87 1228.36 1481.76 1250.45C1471.66 1272.38 1456.93 1289.5 1437.58 1301.83C1418.22 1314.16 1394.93 1320.33 1367.7 1320.33ZM1367.7 1291.56C1400.41 1291.56 1424.82 1280.6 1440.92 1258.68C1457.19 1236.75 1465.32 1208.32 1465.32 1173.39C1465.32 1137.76 1457.19 1109.33 1440.92 1088.1C1424.65 1066.86 1400.24 1056.24 1367.7 1056.24C1345.61 1056.24 1327.37 1061.3 1312.98 1071.4C1298.6 1081.33 1287.81 1095.12 1280.61 1112.76C1273.59 1130.23 1270.08 1150.44 1270.08 1173.39C1270.08 1209.01 1278.3 1237.61 1294.74 1259.19C1311.36 1280.77 1335.68 1291.56 1367.7 1291.56Z" fill="white"/>
<path d="M1660.05 1319.05C1644.81 1319.05 1631.11 1316.82 1618.95 1312.37C1606.96 1307.91 1596.51 1301.66 1587.61 1293.61C1578.7 1285.39 1571.34 1275.8 1565.51 1264.84C1559.69 1253.71 1555.32 1241.55 1552.41 1228.36C1549.67 1215.17 1548.3 1201.39 1548.3 1187V1035.18H1578.1V1179.55C1578.1 1197.02 1579.81 1212.61 1583.24 1226.31C1586.83 1240.01 1592.14 1251.65 1599.17 1261.24C1606.36 1270.84 1615.26 1278.11 1625.88 1283.08C1636.67 1288.05 1649.35 1290.53 1663.9 1290.53C1678.97 1290.53 1691.99 1287.96 1702.95 1282.82C1714.08 1277.51 1723.16 1270.15 1730.18 1260.73C1737.37 1251.31 1742.68 1240.18 1746.11 1227.33C1749.71 1214.32 1751.5 1200.19 1751.5 1184.95L1774.88 1187.77C1774.88 1217.74 1769.74 1242.49 1759.47 1262.02C1749.36 1281.37 1735.66 1295.75 1718.36 1305.17C1701.07 1314.42 1681.63 1319.05 1660.05 1319.05ZM1754.33 1312.62V1250.2H1751.5V1035.18H1781.3V1312.62H1754.33Z" fill="white"/>
<path d="M2000.18 1312.62C1985.45 1315.88 1970.89 1317.08 1956.51 1316.22C1942.12 1315.53 1929.28 1312.37 1917.97 1306.71C1906.84 1300.89 1898.45 1291.99 1892.8 1280C1888.17 1270.24 1885.61 1260.39 1885.09 1250.45C1884.58 1240.52 1884.32 1229.13 1884.32 1216.29V958.111H1914.12V1215.77C1914.12 1227.42 1914.21 1237.1 1914.38 1244.8C1914.72 1252.34 1916.52 1259.27 1919.77 1265.61C1925.94 1277.43 1935.7 1284.62 1949.06 1287.19C1962.42 1289.59 1979.46 1289.16 2000.18 1285.91V1312.62ZM1822.15 1062.15V1035.18H2000.18V1062.15H1822.15Z" fill="white"/>
<path d="M1151.86 562.857L1150.81 563.916L1151.86 564.976C1200.95 614.154 1267.64 641.989 1338.03 641.989C1408.41 641.989 1475.1 614.154 1524.19 564.976C1573.28 515.798 1601.06 448.993 1601.06 378.482C1601.06 307.975 1574.2 242.09 1524.19 191.987C1475.1 142.81 1408.41 114.975 1338.03 114.975C1267.64 114.975 1201.88 141.884 1151.86 191.987L813.891 530.567L813.885 530.573L813.88 530.579C773.651 571.795 719.71 593.783 662.083 593.783C604.472 593.783 550.518 570.883 510.275 530.567L510.269 530.561L510.263 530.555C469.12 490.254 447.171 436.214 447.171 378.482C447.171 320.764 470.032 266.712 510.275 226.396L510.281 226.39L510.287 226.384C550.515 185.168 604.457 163.18 662.083 163.18C719.695 163.18 773.648 186.081 813.891 226.396L814.953 227.46L816.015 226.396L848.246 194.107L849.304 193.047L848.246 191.987C799.157 142.81 732.47 114.975 662.083 114.975C591.701 114.975 525.933 141.884 475.92 191.987C426.831 241.165 399.047 307.971 399.047 378.482C399.047 448.989 425.907 514.873 475.92 564.976C525.009 614.154 591.697 641.989 662.083 641.989C732.466 641.989 798.233 615.079 848.246 564.976L1186.22 226.396L1186.22 226.39L1186.23 226.384C1226.46 185.168 1280.4 163.18 1338.03 163.18C1395.64 163.18 1449.59 186.081 1489.83 226.396L1489.84 226.402L1489.85 226.408C1530.99 266.709 1552.94 320.749 1552.94 378.482C1552.94 436.199 1530.08 490.251 1489.83 530.567L1489.83 530.573L1489.82 530.579C1449.59 571.795 1395.65 593.783 1338.03 593.783C1280.41 593.783 1226.46 570.883 1186.22 530.567L1185.16 529.503L1184.09 530.567L1151.86 562.857ZM1071.74 643.12L1070.69 644.179L1071.74 645.239C1144.79 718.415 1241.87 755.464 1338.03 755.464C1435.1 755.464 1531.26 718.414 1604.31 645.239C1675.5 573.919 1714.33 479.435 1714.33 378.482C1714.33 277.528 1675.5 183.045 1604.31 111.725C1533.11 40.4044 1438.8 1.5001 1338.03 1.5001C1237.25 1.5001 1142.94 40.4044 1071.74 111.725L733.772 450.304C714.706 469.405 689.3 480.309 662.083 480.309C634.866 480.309 609.459 469.405 590.393 450.304C571.327 431.204 560.442 405.75 560.442 378.482C560.442 351.214 571.327 325.76 590.393 306.659C609.459 287.559 634.866 276.655 662.083 276.655C689.3 276.655 714.706 287.559 733.772 306.659L734.834 307.723L735.896 306.659L768.127 274.37L769.185 273.31L768.127 272.25C740.217 244.29 702.078 228.45 662.083 228.45C622.088 228.45 583.948 244.29 556.038 272.25C528.128 300.21 512.317 338.417 512.317 378.482C512.317 418.547 528.128 456.753 556.038 484.713C583.948 512.674 622.088 528.514 662.083 528.514C702.078 528.514 740.217 512.674 768.127 484.713L1106.1 146.134C1168.44 83.6802 1250.02 49.7055 1338.03 49.7055C1426.03 49.7055 1507.61 83.6802 1569.95 146.134L1569.96 146.138C1698.29 273.785 1698.3 482.255 1569.95 610.83L1569.95 610.834C1442.53 739.398 1234.44 739.404 1106.1 610.83L1105.04 609.767L1103.98 610.83L1071.74 643.12ZM928.364 113.844L929.421 112.785L928.364 111.725C857.171 40.4043 762.857 1.5 662.082 1.5C561.308 1.5 466.993 40.4043 395.8 111.725C324.608 183.045 285.774 277.528 285.774 378.482C285.774 479.435 324.608 573.919 395.8 645.239C466.993 716.56 561.308 755.464 662.082 755.464C762.857 755.464 857.171 716.56 928.364 645.239L1266.34 306.659C1285.4 287.559 1310.81 276.655 1338.02 276.655C1365.24 276.655 1390.65 287.559 1409.71 306.659C1428.78 325.76 1439.67 351.214 1439.67 378.482C1439.67 405.75 1428.78 431.204 1409.71 450.304C1390.65 469.405 1365.24 480.309 1338.02 480.309C1310.81 480.309 1285.4 469.405 1266.34 450.304L1265.27 449.241L1264.21 450.304L1231.98 482.594L1230.92 483.654L1231.98 484.713C1259.89 512.673 1298.03 528.514 1338.02 528.514C1378.02 528.514 1416.16 512.673 1444.07 484.713C1471.98 456.753 1487.79 418.546 1487.79 378.482C1487.79 338.417 1471.98 300.21 1444.07 272.25C1416.16 244.29 1378.02 228.45 1338.02 228.45C1298.03 228.45 1259.89 244.29 1231.98 272.25L894.009 610.83C831.667 673.284 750.088 707.258 662.082 707.258C574.076 707.258 492.497 673.284 430.155 610.83L430.151 610.826C301.816 483.179 301.811 274.709 430.155 146.134L430.159 146.13C557.575 17.5659 765.666 17.5604 894.009 146.134L895.07 147.197L896.132 146.134L928.364 113.844Z" fill="white" stroke="white" stroke-width="3"/>
</svg>
