<svg width="2002" height="293" viewBox="0 0 2002 293" fill="none" xmlns="http://www.w3.org/2000/svg">
<path d="M671.194 272.107C648.549 272.107 629.839 267.323 615.065 257.757C600.413 248.19 591.33 234.869 587.818 217.794L609.253 214.161C612.28 225.787 619.425 235.051 630.687 241.953C641.949 248.856 655.754 252.307 672.102 252.307C688.329 252.307 701.226 248.856 710.793 241.953C720.36 235.051 725.143 225.605 725.143 213.616C725.143 207.077 723.629 201.749 720.602 197.631C717.696 193.393 711.883 189.518 703.164 186.006C694.445 182.494 681.487 178.377 664.292 173.654C646.127 168.81 631.898 163.966 621.605 159.122C611.432 154.279 604.227 148.769 599.989 142.593C595.871 136.417 593.813 128.848 593.813 119.887C593.813 109.109 596.901 99.6634 603.077 91.5499C609.253 83.3152 617.851 76.8971 628.87 72.2953C640.011 67.6936 652.848 65.3928 667.38 65.3928C681.911 65.3928 694.99 67.8147 706.615 72.6586C718.241 77.3814 727.626 84.0418 734.77 92.6398C741.915 101.117 746.033 110.986 747.122 122.248L725.688 126.244C723.629 113.65 717.272 103.72 706.615 96.4543C695.959 89.0674 682.638 85.3133 666.653 85.1922C651.516 84.95 639.164 87.9775 629.597 94.2746C620.03 100.451 615.247 108.625 615.247 118.797C615.247 124.61 616.882 129.575 620.151 133.692C623.542 137.688 629.476 141.382 637.953 144.772C646.43 148.163 658.418 151.796 673.919 155.671C692.81 160.515 707.523 165.48 718.059 170.566C728.716 175.652 736.224 181.647 740.583 188.549C744.943 195.331 747.122 203.747 747.122 213.798C747.122 231.963 740.341 246.252 726.778 256.667C713.336 266.96 694.808 272.107 671.194 272.107Z" fill="white"/>
<path d="M867.566 272.47C847.948 272.47 831.418 268.11 817.976 259.391C804.534 250.551 794.301 238.381 787.278 222.88C780.375 207.259 776.803 189.276 776.561 168.931C776.803 148.224 780.436 130.12 787.459 114.619C794.604 98.9974 804.897 86.8876 818.339 78.2897C831.781 69.6917 848.25 65.3928 867.747 65.3928C886.76 65.3928 903.471 69.9945 917.882 79.1979C932.413 88.2802 942.464 100.814 948.035 116.799L927.691 124.246C922.726 112.015 914.915 102.57 904.258 95.9094C893.602 89.1279 881.371 85.7372 867.566 85.7372C852.065 85.7372 839.289 89.3096 829.238 96.4543C819.187 103.478 811.679 113.226 806.714 125.699C801.749 138.172 799.145 152.583 798.903 168.931C799.266 193.999 805.14 214.161 816.523 229.42C828.027 244.557 845.041 252.125 867.566 252.125C881.492 252.125 893.541 248.916 903.713 242.498C914.007 236.08 921.878 226.756 927.327 214.525L948.035 221.609C940.406 238.199 929.749 250.854 916.065 259.573C902.381 268.171 886.215 272.47 867.566 272.47Z" fill="white"/>
<path d="M1042.1 272.47C1026.96 272.47 1014.37 269.806 1004.32 264.477C994.387 259.149 986.939 252.125 981.974 243.406C977.009 234.566 974.527 225 974.527 214.706C974.527 203.565 976.828 194.241 981.43 186.733C986.152 179.225 992.389 173.17 1000.14 168.568C1008.01 163.966 1016.67 160.515 1026.11 158.214C1036.89 155.792 1048.52 153.734 1060.99 152.038C1073.46 150.222 1085.33 148.647 1096.59 147.315C1107.98 145.983 1117.24 144.833 1124.39 143.864L1116.76 148.405C1117.24 127.213 1113.24 111.47 1104.77 101.177C1096.41 90.7627 1081.64 85.5555 1060.45 85.5555C1045.55 85.5555 1033.26 88.9463 1023.57 95.7278C1014 102.388 1007.28 112.742 1003.41 126.789L981.974 120.795C986.455 102.994 995.477 89.3096 1009.04 79.7429C1022.6 70.1761 1039.98 65.3928 1061.17 65.3928C1079.22 65.3928 1094.35 68.9046 1106.58 75.9283C1118.94 82.9519 1127.53 92.8214 1132.38 105.537C1134.44 110.744 1135.83 116.859 1136.56 123.883C1137.28 130.786 1137.65 137.749 1137.65 144.772V267.02H1118.57V215.433L1125.66 217.249C1119.72 234.93 1109.37 248.553 1094.6 258.12C1079.82 267.687 1062.32 272.47 1042.1 272.47ZM1043.19 253.215C1056.51 253.215 1068.2 250.854 1078.25 246.131C1088.3 241.287 1096.41 234.566 1102.59 225.968C1108.88 217.249 1112.88 207.017 1114.58 195.27C1115.79 188.731 1116.45 181.647 1116.57 174.017C1116.7 166.388 1116.76 160.757 1116.76 157.124L1125.84 162.937C1117.97 163.906 1108.52 164.935 1097.5 166.025C1086.6 167.115 1075.46 168.447 1064.08 170.021C1052.7 171.595 1042.4 173.594 1033.2 176.016C1027.51 177.59 1021.76 179.891 1015.94 182.918C1010.25 185.824 1005.47 189.881 1001.59 195.088C997.838 200.296 995.961 206.895 995.961 214.888C995.961 220.822 997.414 226.755 1000.32 232.689C1003.35 238.623 1008.31 243.528 1015.22 247.403C1022.12 251.278 1031.44 253.215 1043.19 253.215Z" fill="white"/>
<path d="M1188.44 267.02V0H1209.33V267.02H1188.44Z" fill="white"/>
<path d="M1344.76 272.47C1325.99 272.47 1309.76 268.292 1296.08 259.936C1282.39 251.459 1271.8 239.531 1264.29 224.152C1256.78 208.651 1253.03 190.366 1253.03 169.295C1253.03 147.86 1256.72 129.393 1264.11 113.892C1271.62 98.2708 1282.15 86.2821 1295.72 77.9264C1309.4 69.5706 1325.63 65.3928 1344.4 65.3928C1363.41 65.3928 1379.64 69.7523 1393.08 78.4713C1406.64 87.0693 1416.93 99.5423 1423.96 115.891C1431.1 132.239 1434.49 151.917 1434.13 174.926H1412.33V167.66C1411.73 140.776 1405.67 120.311 1394.17 106.263C1382.66 92.2159 1366.19 85.1922 1344.76 85.1922C1322.6 85.1922 1305.46 92.5187 1293.35 107.171C1281.37 121.703 1275.37 142.29 1275.37 168.931C1275.37 195.331 1281.37 215.796 1293.35 230.328C1305.46 244.86 1322.48 252.125 1344.4 252.125C1359.53 252.125 1372.73 248.614 1384 241.59C1395.38 234.445 1404.4 224.273 1411.06 211.073L1429.95 219.429C1422.08 236.383 1410.7 249.461 1395.8 258.665C1380.91 267.868 1363.89 272.47 1344.76 272.47ZM1267.38 174.926V156.034H1422.32V174.926H1267.38Z" fill="white"/>
<path d="M1554.78 272.47C1535.28 272.47 1518.75 268.05 1505.19 259.21C1491.63 250.37 1481.27 238.139 1474.13 222.517C1466.98 206.895 1463.41 188.912 1463.41 168.568C1463.41 148.103 1467.04 130.12 1474.31 114.619C1481.58 98.9974 1491.99 86.8876 1505.55 78.2897C1519.24 69.6917 1535.65 65.3928 1554.78 65.3928C1574.28 65.3928 1590.81 69.8128 1604.37 78.653C1618.05 87.372 1628.41 99.4818 1635.43 114.982C1642.58 130.483 1646.15 148.345 1646.15 168.568C1646.15 189.276 1642.58 207.44 1635.43 223.062C1628.29 238.563 1617.87 250.672 1604.19 259.391C1590.5 268.11 1574.03 272.47 1554.78 272.47ZM1554.78 252.125C1577.91 252.125 1595.17 244.375 1606.55 228.875C1618.05 213.374 1623.81 193.272 1623.81 168.568C1623.81 143.38 1618.05 123.277 1606.55 108.261C1595.05 93.2453 1577.79 85.7372 1554.78 85.7372C1539.16 85.7372 1526.26 89.3096 1516.09 96.4543C1505.92 103.478 1498.29 113.226 1493.2 125.699C1488.24 138.051 1485.75 152.341 1485.75 168.568C1485.75 193.756 1491.57 213.98 1503.19 229.238C1514.94 244.496 1532.13 252.125 1554.78 252.125Z" fill="white"/>
<path d="M1761.5 271.562C1750.72 271.562 1741.03 269.987 1732.43 266.839C1723.96 263.69 1716.57 259.27 1710.27 253.579C1703.98 247.766 1698.77 240.984 1694.65 233.234C1690.53 225.363 1687.45 216.765 1685.39 207.44C1683.45 198.116 1682.48 188.368 1682.48 178.195V70.8422H1703.55V172.928C1703.55 185.28 1704.76 196.299 1707.18 205.987C1709.73 215.675 1713.48 223.91 1718.45 230.691C1723.53 237.473 1729.83 242.619 1737.34 246.131C1744.97 249.643 1753.93 251.399 1764.22 251.399C1774.88 251.399 1784.08 249.582 1791.83 245.949C1799.7 242.195 1806.12 236.988 1811.09 230.328C1816.17 223.667 1819.93 215.796 1822.35 206.714C1824.89 197.51 1826.16 187.52 1826.16 176.742L1842.69 178.74C1842.69 199.932 1839.06 217.431 1831.79 231.236C1824.65 244.92 1814.96 255.092 1802.73 261.753C1790.5 268.292 1776.76 271.562 1761.5 271.562ZM1828.16 267.02V222.88H1826.16V70.8422H1847.23V267.02H1828.16Z" fill="white"/>
<path d="M2002 267.02C1991.59 269.321 1981.29 270.169 1971.12 269.564C1960.95 269.079 1951.87 266.839 1943.87 262.843C1936 258.725 1930.07 252.428 1926.07 243.951C1922.8 237.049 1920.99 230.086 1920.62 223.062C1920.26 216.038 1920.08 207.985 1920.08 198.903V16.3482H1941.15V198.54C1941.15 206.774 1941.21 213.616 1941.33 219.066C1941.57 224.394 1942.84 229.299 1945.14 233.779C1949.5 242.135 1956.41 247.221 1965.85 249.037C1975.3 250.733 1987.35 250.43 2002 248.129V267.02ZM1876.12 89.9151V70.8422H2002V89.9151H1876.12Z" fill="white"/>
<path d="M300.709 224.252L300.002 224.959L300.709 225.667C317.779 242.736 340.967 252.397 365.44 252.397C389.913 252.397 413.102 242.736 430.171 225.667C447.241 208.597 456.902 185.408 456.902 160.935C456.902 136.465 447.561 113.594 430.171 96.2043C413.102 79.1346 389.913 69.4737 365.44 69.4737C340.97 69.4737 318.099 78.8142 300.709 96.2043L183.809 213.104L183.802 213.112C169.981 227.247 151.449 234.789 131.641 234.789C111.843 234.789 93.3034 226.935 79.4727 213.104L79.4647 213.096C65.3299 199.275 57.7872 180.743 57.7872 160.935C57.7872 141.138 65.6419 122.598 79.4726 108.767L79.4727 108.767L79.4805 108.759C93.3012 94.6242 111.834 87.0815 131.641 87.0815C151.439 87.0815 169.979 94.9362 183.809 108.767L184.517 109.474L185.224 108.767L196.372 97.6185L197.079 96.9114L196.372 96.2043C179.302 79.1346 156.114 69.4737 131.641 69.4737C107.171 69.4737 84.3001 78.8142 66.91 96.2043C49.8402 113.274 40.1793 136.463 40.1793 160.935C40.1793 185.406 49.5198 208.276 66.91 225.667C83.9797 242.736 107.168 252.397 131.641 252.397C156.111 252.397 178.982 243.057 196.372 225.667L313.272 108.767L313.28 108.759C327.1 94.6242 345.633 87.0815 365.44 87.0815C385.238 87.0815 403.778 94.9362 417.609 108.767L417.617 108.775C431.751 122.596 439.294 141.128 439.294 160.935C439.294 180.733 431.439 199.273 417.609 213.104L417.601 213.112C403.78 227.247 385.247 234.789 365.44 234.789C345.642 234.789 327.102 226.935 313.272 213.104L312.565 212.397L311.858 213.104L300.709 224.252ZM272.997 251.964L272.29 252.671L272.997 253.379C298.356 278.738 332.06 291.576 365.44 291.576C399.14 291.576 432.524 278.737 457.883 253.379C482.598 228.663 496.081 195.919 496.081 160.936C496.081 125.953 482.598 93.2079 457.883 68.4926C433.168 43.7772 400.423 30.295 365.44 30.295C330.457 30.295 297.712 43.7772 272.997 68.4926L156.097 185.392C149.59 191.899 140.924 195.611 131.641 195.611C122.358 195.611 113.691 191.899 107.184 185.392C100.677 178.885 96.9658 170.218 96.9658 160.936C96.9658 151.653 100.677 142.986 107.184 136.479C113.691 129.972 122.358 126.261 131.641 126.261C140.924 126.261 149.59 129.972 156.097 136.479L156.805 137.186L157.512 136.479L168.66 125.331L169.367 124.623L168.66 123.916C158.916 114.172 145.601 108.653 131.641 108.653C117.681 108.653 104.366 114.172 94.6216 123.916C84.8771 133.661 79.358 146.975 79.358 160.936C79.358 174.896 84.8771 188.21 94.6216 197.955C104.366 207.699 117.681 213.218 131.641 213.218C145.601 213.218 158.916 207.699 168.66 197.955L285.56 81.0553C307.033 59.5821 335.128 47.9028 365.44 47.9028C395.752 47.9028 423.847 59.5821 445.32 81.0553L445.323 81.0578C489.521 124.941 489.525 196.611 445.32 240.816L445.318 240.818C401.435 285.017 329.764 285.021 285.56 240.816L284.853 240.109L284.145 240.816L272.997 251.964ZM224.084 69.9068L224.791 69.1997L224.084 68.4926C199.368 43.7772 166.624 30.2949 131.641 30.2949C96.6577 30.2949 63.913 43.7772 39.1976 68.4926C14.4823 93.2079 1 125.953 1 160.936C1 195.918 14.4823 228.663 39.1976 253.379C63.913 278.094 96.6577 291.576 131.641 291.576C166.624 291.576 199.368 278.094 224.084 253.379L340.983 136.479C347.49 129.972 356.157 126.261 365.44 126.261C374.723 126.261 383.389 129.972 389.896 136.479C396.403 142.986 400.115 151.653 400.115 160.936C400.115 170.218 396.403 178.885 389.896 185.392C383.389 191.899 374.723 195.611 365.44 195.611C356.157 195.611 347.49 191.899 340.983 185.392L340.276 184.685L339.569 185.392L328.421 196.541L327.713 197.248L328.421 197.955C338.165 207.699 351.479 213.218 365.44 213.218C379.4 213.218 392.714 207.699 402.459 197.955C412.203 188.21 417.723 174.896 417.723 160.936C417.723 146.975 412.203 133.661 402.459 123.916C392.714 114.172 379.4 108.653 365.44 108.653C351.479 108.653 338.165 114.172 328.421 123.916L211.521 240.816C190.048 262.289 161.953 273.968 131.641 273.968C101.328 273.968 73.2335 262.289 51.7603 240.816L51.7578 240.813C7.55925 196.931 7.55559 125.26 51.7603 81.0552L51.7628 81.0527C95.6456 36.8542 167.316 36.8505 211.521 81.0552L212.228 81.7623L212.935 81.0552L224.084 69.9068Z" fill="white" stroke="white" stroke-width="2"/>
</svg>
