<svg width="2001" height="1321" viewBox="0 0 2001 1321" fill="none" xmlns="http://www.w3.org/2000/svg">
<path d="M118.763 1319.82C86.7375 1319.82 60.2775 1313.05 39.3836 1299.52C18.6609 1285.99 5.81621 1267.15 0.849609 1243L31.163 1237.87C35.4445 1254.31 45.549 1267.41 61.4764 1277.17C77.4037 1286.93 96.9276 1291.81 120.048 1291.81C142.997 1291.81 161.236 1286.93 174.766 1277.17C188.296 1267.41 195.061 1254.05 195.061 1237.1C195.061 1227.85 192.92 1220.31 188.638 1214.49C184.528 1208.5 176.308 1203.02 163.977 1198.05C151.646 1193.08 133.321 1187.26 109.002 1180.58C83.3123 1173.73 63.189 1166.88 48.6317 1160.03C34.2457 1153.18 24.0556 1145.39 18.0614 1136.65C12.2385 1127.92 9.32708 1117.21 9.32708 1104.54C9.32708 1089.3 13.6943 1075.94 22.4286 1064.46C31.163 1052.82 43.3226 1043.74 58.9074 1037.23C74.6635 1030.73 92.8173 1027.47 113.369 1027.47C133.92 1027.47 152.416 1030.9 168.858 1037.75C185.299 1044.43 198.572 1053.85 208.676 1066.01C218.78 1077.99 224.603 1091.95 226.145 1107.88L195.831 1113.53C192.92 1095.72 183.929 1081.68 168.858 1071.4C153.787 1060.95 134.948 1055.64 112.341 1055.47C90.9334 1055.13 73.4647 1059.41 59.935 1068.32C46.4053 1077.05 39.6405 1088.61 39.6405 1103C39.6405 1111.22 41.9525 1118.24 46.5766 1124.06C51.3719 1129.72 59.7637 1134.94 71.7521 1139.73C83.7404 1144.53 100.695 1149.67 122.617 1155.15C149.334 1162 170.142 1169.02 185.042 1176.21C200.113 1183.41 210.731 1191.88 216.897 1201.65C223.062 1211.24 226.145 1223.14 226.145 1237.35C226.145 1263.04 216.554 1283.25 197.373 1297.98C178.363 1312.54 152.16 1319.82 118.763 1319.82Z" fill="#041324"/>
<path d="M396.481 1320.33C368.736 1320.33 345.359 1314.16 326.349 1301.83C307.339 1289.33 292.867 1272.12 282.934 1250.2C273.172 1228.11 268.12 1202.67 267.777 1173.9C268.12 1144.61 273.258 1119.01 283.191 1097.09C293.295 1075 307.853 1057.87 326.863 1045.71C345.873 1033.55 369.165 1027.47 396.738 1027.47C423.626 1027.47 447.26 1033.98 467.64 1047C488.192 1059.84 502.406 1077.57 510.284 1100.17L481.512 1110.71C474.491 1093.41 463.444 1080.05 448.373 1070.63C433.302 1061.04 416.005 1056.24 396.481 1056.24C374.559 1056.24 356.491 1061.3 342.276 1071.4C328.062 1081.33 317.443 1095.12 310.422 1112.76C303.4 1130.4 299.718 1150.78 299.375 1173.9C299.889 1209.35 308.195 1237.87 324.294 1259.45C340.564 1280.85 364.626 1291.56 396.481 1291.56C416.176 1291.56 433.217 1287.02 447.603 1277.94C462.16 1268.87 473.292 1255.68 480.999 1238.38L510.284 1248.4C499.495 1271.86 484.424 1289.76 465.071 1302.09C445.719 1314.25 422.855 1320.33 396.481 1320.33Z" fill="#041324"/>
<path d="M643.315 1320.33C621.907 1320.33 604.096 1316.56 589.881 1309.03C575.838 1301.49 565.305 1291.56 558.283 1279.23C551.262 1266.72 547.751 1253.2 547.751 1238.64C547.751 1222.88 551.005 1209.69 557.513 1199.08C564.192 1188.46 573.012 1179.89 583.973 1173.39C595.105 1166.88 607.35 1162 620.708 1158.74C635.951 1155.32 652.392 1152.41 670.032 1150.01C687.672 1147.44 704.455 1145.21 720.383 1143.33C736.481 1141.45 749.583 1139.82 759.687 1138.45L748.898 1144.87C749.583 1114.9 743.931 1092.64 731.943 1078.08C720.126 1063.35 699.232 1055.99 669.261 1055.99C648.196 1055.99 630.813 1060.78 617.112 1070.37C603.582 1079.79 594.077 1094.44 588.597 1114.3L558.283 1105.82C564.62 1080.65 577.379 1061.3 596.56 1047.77C615.742 1034.24 640.318 1027.47 670.289 1027.47C695.807 1027.47 717.214 1032.44 734.512 1042.37C751.981 1052.3 764.14 1066.26 770.991 1084.25C773.902 1091.61 775.872 1100.26 776.899 1110.19C777.927 1119.95 778.441 1129.8 778.441 1139.73V1312.62H751.467V1239.67L761.486 1242.23C753.094 1267.24 738.451 1286.51 717.557 1300.04C696.663 1313.56 671.916 1320.33 643.315 1320.33ZM644.856 1293.1C663.695 1293.1 680.222 1289.76 694.437 1283.08C708.651 1276.23 720.126 1266.72 728.86 1254.57C737.766 1242.23 743.417 1227.76 745.815 1211.15C747.528 1201.9 748.47 1191.88 748.641 1181.09C748.812 1170.3 748.898 1162.34 748.898 1157.2L761.742 1165.42C750.61 1166.79 737.252 1168.25 721.667 1169.79C706.254 1171.33 690.497 1173.22 674.399 1175.44C658.3 1177.67 643.743 1180.49 630.727 1183.92C622.678 1186.15 614.543 1189.4 606.322 1193.68C598.273 1197.79 591.508 1203.53 586.028 1210.89C580.719 1218.26 578.064 1227.59 578.064 1238.89C578.064 1247.29 580.119 1255.68 584.229 1264.07C588.511 1272.46 595.533 1279.4 605.295 1284.88C615.057 1290.36 628.244 1293.1 644.856 1293.1Z" fill="#041324"/>
<path d="M850.282 1312.62V934.99H879.825V1312.62H850.282Z" fill="#041324"/>
<path d="M1071.35 1320.33C1044.81 1320.33 1021.86 1314.42 1002.5 1302.6C983.151 1290.62 968.165 1273.75 957.547 1252C946.929 1230.07 941.62 1204.21 941.62 1174.41C941.62 1144.1 946.843 1117.98 957.29 1096.06C967.908 1073.97 982.808 1057.01 1001.99 1045.2C1021.34 1033.38 1044.29 1027.47 1070.84 1027.47C1097.73 1027.47 1120.67 1033.64 1139.68 1045.97C1158.87 1058.13 1173.42 1075.77 1183.36 1098.89C1193.46 1122.01 1198.26 1149.84 1197.74 1182.38H1166.91V1172.1C1166.06 1134.08 1157.5 1105.14 1141.23 1085.27C1124.96 1065.41 1101.66 1055.47 1071.35 1055.47C1040.01 1055.47 1015.78 1065.83 998.65 1086.56C981.695 1107.11 973.218 1136.22 973.218 1173.9C973.218 1211.24 981.695 1240.18 998.65 1260.73C1015.78 1281.28 1039.84 1291.56 1070.84 1291.56C1092.24 1291.56 1110.91 1286.59 1126.84 1276.66C1142.94 1266.55 1155.7 1252.17 1165.12 1233.5L1191.83 1245.32C1180.7 1269.29 1164.6 1287.79 1143.54 1300.81C1122.47 1313.82 1098.41 1320.33 1071.35 1320.33ZM961.914 1182.38V1155.66H1181.04V1182.38H961.914Z" fill="#041324"/>
<path d="M1368.37 1320.33C1340.8 1320.33 1317.42 1314.08 1298.24 1301.58C1279.06 1289.07 1264.42 1271.78 1254.31 1249.68C1244.21 1227.59 1239.15 1202.16 1239.15 1173.39C1239.15 1144.44 1244.29 1119.01 1254.57 1097.09C1264.84 1075 1279.57 1057.87 1298.75 1045.71C1318.11 1033.55 1341.31 1027.47 1368.37 1027.47C1395.94 1027.47 1419.32 1033.72 1438.5 1046.22C1457.86 1058.56 1472.5 1075.68 1482.43 1097.6C1492.54 1119.53 1497.59 1144.79 1497.59 1173.39C1497.59 1202.67 1492.54 1228.36 1482.43 1250.45C1472.33 1272.38 1457.6 1289.5 1438.25 1301.83C1418.89 1314.16 1395.6 1320.33 1368.37 1320.33ZM1368.37 1291.56C1401.08 1291.56 1425.49 1280.6 1441.59 1258.68C1457.86 1236.75 1465.99 1208.32 1465.99 1173.39C1465.99 1137.76 1457.86 1109.33 1441.59 1088.1C1425.32 1066.86 1400.91 1056.24 1368.37 1056.24C1346.28 1056.24 1328.04 1061.3 1313.65 1071.4C1299.27 1081.33 1288.48 1095.12 1281.28 1112.76C1274.26 1130.23 1270.75 1150.44 1270.75 1173.39C1270.75 1209.01 1278.97 1237.61 1295.41 1259.19C1312.03 1280.77 1336.35 1291.56 1368.37 1291.56Z" fill="#041324"/>
<path d="M1660.72 1319.05C1645.48 1319.05 1631.78 1316.82 1619.62 1312.37C1607.63 1307.91 1597.18 1301.66 1588.28 1293.61C1579.37 1285.39 1572.01 1275.8 1566.18 1264.84C1560.36 1253.71 1555.99 1241.55 1553.08 1228.36C1550.34 1215.17 1548.97 1201.39 1548.97 1187V1035.18H1578.77V1179.55C1578.77 1197.02 1580.48 1212.61 1583.91 1226.31C1587.5 1240.01 1592.81 1251.65 1599.84 1261.24C1607.03 1270.84 1615.93 1278.11 1626.55 1283.08C1637.34 1288.05 1650.02 1290.53 1664.57 1290.53C1679.64 1290.53 1692.66 1287.96 1703.62 1282.82C1714.75 1277.51 1723.83 1270.15 1730.85 1260.73C1738.04 1251.31 1743.35 1240.18 1746.78 1227.33C1750.38 1214.32 1752.17 1200.19 1752.17 1184.95L1775.55 1187.77C1775.55 1217.74 1770.41 1242.49 1760.14 1262.02C1750.03 1281.37 1736.33 1295.75 1719.03 1305.17C1701.74 1314.42 1682.3 1319.05 1660.72 1319.05ZM1755 1312.62V1250.2H1752.17V1035.18H1781.97V1312.62H1755Z" fill="#041324"/>
<path d="M2000.85 1312.62C1986.12 1315.88 1971.56 1317.08 1957.18 1316.22C1942.79 1315.53 1929.95 1312.37 1918.64 1306.71C1907.51 1300.89 1899.12 1291.99 1893.47 1280C1888.84 1270.24 1886.28 1260.39 1885.76 1250.45C1885.25 1240.52 1884.99 1229.13 1884.99 1216.29V958.111H1914.79V1215.77C1914.79 1227.42 1914.88 1237.1 1915.05 1244.8C1915.39 1252.34 1917.19 1259.27 1920.44 1265.61C1926.61 1277.43 1936.37 1284.62 1949.73 1287.19C1963.09 1289.59 1980.13 1289.16 2000.85 1285.91V1312.62ZM1822.82 1062.15V1035.18H2000.85V1062.15H1822.82Z" fill="#041324"/>
<path d="M1152.53 562.857L1151.47 563.916L1152.53 564.976C1201.62 614.154 1268.31 641.989 1338.69 641.989C1409.08 641.989 1475.77 614.154 1524.86 564.976C1573.95 515.798 1601.73 448.993 1601.73 378.482C1601.73 307.975 1574.87 242.09 1524.86 191.987C1475.77 142.81 1409.08 114.975 1338.69 114.975C1268.31 114.975 1202.54 141.884 1152.53 191.987L814.56 530.567L814.554 530.573L814.549 530.579C774.32 571.795 720.379 593.783 662.752 593.783C605.141 593.783 551.187 570.883 510.944 530.567L510.938 530.561L510.932 530.555C469.789 490.254 447.84 436.214 447.84 378.482C447.84 320.764 470.701 266.712 510.944 226.396L510.95 226.39L510.956 226.384C551.184 185.168 605.126 163.18 662.752 163.18C720.364 163.18 774.317 186.081 814.56 226.396L815.622 227.46L816.684 226.396L848.915 194.107L849.973 193.047L848.915 191.987C799.826 142.81 733.139 114.975 662.752 114.975C592.369 114.975 526.602 141.884 476.589 191.987C427.5 241.165 399.716 307.971 399.716 378.482C399.716 448.989 426.576 514.873 476.589 564.976C525.678 614.154 592.365 641.989 662.752 641.989C733.135 641.989 798.902 615.079 848.915 564.976L1186.89 226.396L1186.89 226.39L1186.9 226.384C1227.13 185.168 1281.07 163.18 1338.69 163.18C1396.31 163.18 1450.26 186.081 1490.5 226.396L1490.51 226.402L1490.52 226.408C1531.66 266.709 1553.61 320.749 1553.61 378.482C1553.61 436.199 1530.75 490.251 1490.5 530.567L1490.5 530.573L1490.49 530.579C1450.26 571.795 1396.32 593.783 1338.69 593.783C1281.08 593.783 1227.13 570.883 1186.89 530.567L1185.83 529.503L1184.76 530.567L1152.53 562.857ZM1072.41 643.12L1071.35 644.179L1072.41 645.239C1145.46 718.415 1242.54 755.464 1338.69 755.464C1435.77 755.464 1531.93 718.414 1604.98 645.239C1676.17 573.919 1715 479.435 1715 378.482C1715 277.528 1676.17 183.045 1604.98 111.725C1533.78 40.4044 1439.47 1.5001 1338.69 1.5001C1237.92 1.5001 1143.61 40.4044 1072.41 111.725L734.441 450.304C715.375 469.405 689.968 480.309 662.752 480.309C635.535 480.309 610.128 469.405 591.062 450.304C571.996 431.204 561.11 405.75 561.11 378.482C561.11 351.214 571.996 325.76 591.062 306.659C610.128 287.559 635.535 276.655 662.752 276.655C689.968 276.655 715.375 287.559 734.441 306.659L735.503 307.723L736.565 306.659L768.796 274.37L769.854 273.31L768.796 272.25C740.886 244.29 702.747 228.45 662.752 228.45C622.757 228.45 584.617 244.29 556.707 272.25C528.797 300.21 512.986 338.417 512.986 378.482C512.986 418.547 528.797 456.753 556.707 484.713C584.617 512.674 622.757 528.514 662.752 528.514C702.747 528.514 740.886 512.674 768.796 484.713L1106.77 146.134C1169.11 83.6802 1250.69 49.7055 1338.69 49.7055C1426.7 49.7055 1508.28 83.6802 1570.62 146.134L1570.63 146.138C1698.96 273.785 1698.97 482.255 1570.62 610.83L1570.62 610.834C1443.2 739.398 1235.11 739.404 1106.77 610.83L1105.71 609.767L1104.64 610.83L1072.41 643.12ZM929.033 113.844L930.09 112.785L929.033 111.725C857.84 40.4043 763.526 1.5 662.751 1.5C561.976 1.5 467.662 40.4043 396.469 111.725C325.277 183.045 286.443 277.528 286.443 378.482C286.443 479.435 325.277 573.919 396.469 645.239C467.662 716.56 561.976 755.464 662.751 755.464C763.526 755.464 857.84 716.56 929.033 645.239L1267 306.659C1286.07 287.559 1311.48 276.655 1338.69 276.655C1365.91 276.655 1391.32 287.559 1410.38 306.659C1429.45 325.76 1440.33 351.214 1440.33 378.482C1440.33 405.75 1429.45 431.204 1410.38 450.304C1391.32 469.405 1365.91 480.309 1338.69 480.309C1311.48 480.309 1286.07 469.405 1267 450.304L1265.94 449.241L1264.88 450.304L1232.65 482.594L1231.59 483.654L1232.65 484.713C1260.56 512.673 1298.7 528.514 1338.69 528.514C1378.69 528.514 1416.83 512.673 1444.74 484.713C1472.65 456.753 1488.46 418.546 1488.46 378.482C1488.46 338.417 1472.65 300.21 1444.74 272.25C1416.83 244.29 1378.69 228.45 1338.69 228.45C1298.7 228.45 1260.56 244.29 1232.65 272.25L894.678 610.83C832.336 673.284 750.757 707.258 662.751 707.258C574.745 707.258 493.166 673.284 430.824 610.83L430.82 610.826C302.485 483.179 302.48 274.709 430.824 146.134L430.828 146.13C558.244 17.5659 766.335 17.5604 894.678 146.134L895.739 147.197L896.801 146.134L929.033 113.844Z" fill="#041324" stroke="#041324" stroke-width="3"/>
</svg>
